<svg width="24" height="20" viewBox="0 0 24 20" fill="none" xmlns="http://www.w3.org/2000/svg">
<path d="M6.39752 2.74795C6.39752 2.01915 6.68189 1.3202 7.18807 0.804857C7.69426 0.289516 8.38079 1.14151e-07 9.09664 1.14151e-07H10.9956C11.7004 -0.00020656 12.3773 0.280239 12.8816 0.781402C13.386 1.28256 13.6778 1.96469 13.6947 2.682C13.9671 2.46827 14.285 2.30584 14.6376 2.20936L17.3404 1.47168C17.6828 1.37822 18.0399 1.35435 18.3914 1.40143C18.7428 1.4485 19.0817 1.5656 19.3888 1.74604C19.6958 1.92648 19.9649 2.16672 20.1807 2.45305C20.3965 2.73937 20.5548 3.06618 20.6465 3.41479L23.9082 15.8038C24.0933 16.5076 23.9961 17.2575 23.6382 17.8885C23.2803 18.5194 22.6909 18.9799 21.9996 19.1685L19.2957 19.9062C18.6044 20.095 17.8677 19.9964 17.2477 19.6323C16.6277 19.2681 16.1751 18.6681 15.9896 17.9643L13.6959 9.249V17.0996C13.6959 17.8284 13.4116 18.5274 12.9054 19.0427C12.3992 19.558 11.7127 19.8476 10.9968 19.8476H9.09664C8.4325 19.8487 7.79148 19.5994 7.29723 19.1477C6.80298 19.5994 6.16195 19.8487 5.49781 19.8476H2.69912C2.34457 19.8476 1.99349 19.7764 1.66594 19.6383C1.33839 19.5001 1.04078 19.2976 0.790131 19.0423C0.539478 18.787 0.340687 18.4839 0.205114 18.1504C0.0695414 17.8168 -0.000157313 17.4593 2.66604e-07 17.0984V5.49591C2.66604e-07 4.76711 0.284371 4.06815 0.790555 3.55281C1.29674 3.03747 1.98327 2.74795 2.69912 2.74795H5.49781C5.81331 2.74795 6.11681 2.80291 6.39752 2.90428V2.74795ZM6.39752 17.0984V5.46904C6.39065 5.23079 6.29284 5.00465 6.12485 4.83864C5.95686 4.67263 5.73193 4.57982 5.49781 4.57992H2.69912C2.46051 4.57992 2.23166 4.67643 2.06293 4.84821C1.89421 5.01999 1.79942 5.25297 1.79942 5.49591V17.0984C1.79942 17.604 2.20248 18.0144 2.69912 18.0144H5.49781C5.73233 18.0145 5.95761 17.9213 6.12567 17.7548C6.29372 17.5882 6.39127 17.3615 6.39752 17.1228V17.0984ZM9.09664 18.0144H10.9956C11.2342 18.0144 11.4631 17.9179 11.6318 17.7461C11.8005 17.5743 11.8953 17.3413 11.8953 17.0984V2.74795C11.8953 2.50502 11.8005 2.27204 11.6318 2.10026C11.4631 1.92847 11.2342 1.83197 10.9956 1.83197H9.09664C8.85802 1.83197 8.62918 1.92847 8.46045 2.10026C8.29172 2.27204 8.19693 2.50502 8.19693 2.74795V17.1228C8.20319 17.3615 8.30073 17.5882 8.46879 17.7548C8.63684 17.9213 8.86212 18.0145 9.09664 18.0144ZM14.4673 5.10142L17.7266 17.488C17.7573 17.6042 17.8101 17.7131 17.882 17.8086C17.954 17.904 18.0438 17.984 18.1461 18.0441C18.2485 18.1043 18.3615 18.1432 18.4787 18.1589C18.5959 18.1745 18.7149 18.1665 18.8291 18.1353L21.5318 17.3976C21.7621 17.3346 21.9584 17.1812 22.0776 16.971C22.1968 16.7607 22.2292 16.5109 22.1676 16.2764L18.9095 3.88988C18.8476 3.65545 18.6969 3.4556 18.4904 3.33423C18.2839 3.21286 18.0385 3.1799 17.8082 3.24259L15.1043 3.97904C14.9901 4.01021 14.8831 4.06397 14.7894 4.13726C14.6957 4.21054 14.617 4.3019 14.558 4.40613C14.499 4.51036 14.4607 4.62541 14.4453 4.74471C14.43 4.86401 14.4366 4.98522 14.4673 5.10142Z" fill="#363743"/>
</svg>
