<svg width="10" height="10" viewBox="0 0 10 10" fill="none" xmlns="http://www.w3.org/2000/svg">
<path d="M7.38509 0.162661C7.48927 0.0585092 7.63055 0 7.77787 0C7.92519 0 8.06647 0.0585092 8.17065 0.162661L9.83734 1.82935C9.94149 1.93353 10 2.07481 10 2.22213C10 2.36945 9.94149 2.51073 9.83734 2.61491L4.83728 7.61497C4.73312 7.71917 4.59183 7.77772 4.4445 7.77775H2.77781C2.63047 7.77775 2.48916 7.71922 2.38497 7.61503C2.28078 7.51084 2.22225 7.36953 2.22225 7.22219V5.5555C2.22228 5.40817 2.28083 5.26688 2.38503 5.16272L7.38509 0.162661ZM3.33337 5.78551V6.66663H4.21449L8.65899 2.22213L7.77787 1.34101L3.33337 5.78551ZM0 2.22213C0 1.92744 0.117064 1.64482 0.325441 1.43645C0.533817 1.22807 0.816436 1.11101 1.11112 1.11101H3.88894C4.03628 1.11101 4.17759 1.16954 4.28178 1.27373C4.38596 1.37791 4.4445 1.51922 4.4445 1.66657C4.4445 1.81391 4.38596 1.95522 4.28178 2.05941C4.17759 2.1636 4.03628 2.22213 3.88894 2.22213H1.11112V8.88888H7.77787V6.11106C7.77787 5.96372 7.8364 5.82241 7.94059 5.71822C8.04478 5.61404 8.18609 5.5555 8.33343 5.5555C8.48078 5.5555 8.62209 5.61404 8.72627 5.71822C8.83046 5.82241 8.88899 5.96372 8.88899 6.11106V8.88888C8.88899 9.18356 8.77193 9.46618 8.56355 9.67456C8.35518 9.88294 8.07256 10 7.77787 10H1.11112C0.816436 10 0.533817 9.88294 0.325441 9.67456C0.117064 9.46618 0 9.18356 0 8.88888V2.22213Z" fill="#363743"/>
</svg>
