<svg width="21" height="19" viewBox="0 0 21 19" fill="none" xmlns="http://www.w3.org/2000/svg">
<path d="M20.3095 2.97619H6.69048M4.21429 2.97619H0.5M20.3095 15.3571H6.69048M4.21429 15.3571H0.5M14.119 9.16667H0.5M20.3095 9.16667H16.5952M5.45238 0.5C5.78074 0.5 6.09566 0.630442 6.32785 0.86263C6.56003 1.09482 6.69048 1.40973 6.69048 1.7381V4.21429C6.69048 4.54265 6.56003 4.85756 6.32785 5.08975C6.09566 5.32194 5.78074 5.45238 5.45238 5.45238C5.12402 5.45238 4.8091 5.32194 4.57692 5.08975C4.34473 4.85756 4.21429 4.54265 4.21429 4.21429V1.7381C4.21429 1.40973 4.34473 1.09482 4.57692 0.86263C4.8091 0.630442 5.12402 0.5 5.45238 0.5ZM5.45238 12.881C5.78074 12.881 6.09566 13.0114 6.32785 13.2436C6.56003 13.4758 6.69048 13.7907 6.69048 14.119V16.5952C6.69048 16.9236 6.56003 17.2385 6.32785 17.4707C6.09566 17.7029 5.78074 17.8333 5.45238 17.8333C5.12402 17.8333 4.8091 17.7029 4.57692 17.4707C4.34473 17.2385 4.21429 16.9236 4.21429 16.5952V14.119C4.21429 13.7907 4.34473 13.4758 4.57692 13.2436C4.8091 13.0114 5.12402 12.881 5.45238 12.881ZM15.3571 6.69048C15.6855 6.69048 16.0004 6.82092 16.2326 7.05311C16.4648 7.28529 16.5952 7.60021 16.5952 7.92857V10.4048C16.5952 10.7331 16.4648 11.048 16.2326 11.2802C16.0004 11.5124 15.6855 11.6429 15.3571 11.6429C15.0288 11.6429 14.7139 11.5124 14.4817 11.2802C14.2495 11.048 14.119 10.7331 14.119 10.4048V7.92857C14.119 7.60021 14.2495 7.28529 14.4817 7.05311C14.7139 6.82092 15.0288 6.69048 15.3571 6.69048Z" stroke="black" stroke-linecap="round" stroke-linejoin="round"/>
</svg>
