<svg width="22" height="22" viewBox="0 0 22 22" fill="none" xmlns="http://www.w3.org/2000/svg">
<path d="M19.9375 0H1.8125C1.3318 0 0.870779 0.190959 0.530869 0.530869C0.190959 0.870779 0 1.3318 0 1.8125V19.9375C0 20.4182 0.190959 20.8792 0.530869 21.2191C0.870779 21.559 1.3318 21.75 1.8125 21.75H19.9375C20.4182 21.75 20.8792 21.559 21.2191 21.2191C21.559 20.8792 21.75 20.4182 21.75 19.9375V1.8125C21.75 1.3318 21.559 0.870779 21.2191 0.530869C20.8792 0.190959 20.4182 0 19.9375 0ZM18.125 8.15625H19.9375V13.5938H18.125V8.15625ZM19.9375 6.34375H18.125V1.8125H19.9375V6.34375ZM1.8125 1.8125H16.3125V19.9375H1.8125V1.8125ZM19.9375 19.9375H18.125V15.4062H19.9375V19.9375ZM13.5654 15.1797C13.2722 14.0847 12.5768 13.1406 11.6181 12.5357C12.1272 12.0296 12.4746 11.3837 12.6163 10.68C12.7579 9.97619 12.6874 9.24622 12.4136 8.58258C12.1399 7.91894 11.6753 7.35152 11.0787 6.95225C10.4821 6.55297 9.78038 6.33983 9.0625 6.33983C8.34462 6.33983 7.64291 6.55297 7.04632 6.95225C6.44972 7.35152 5.98511 7.91894 5.71138 8.58258C5.43764 9.24622 5.36712 9.97619 5.50874 10.68C5.65036 11.3837 5.99775 12.0296 6.50688 12.5357C5.5488 13.1412 4.85365 14.0851 4.55957 15.1797C4.49948 15.4125 4.53435 15.6597 4.65651 15.8668C4.77866 16.074 4.9781 16.2241 5.21094 16.2842C5.44378 16.3443 5.69095 16.3094 5.89809 16.1872C6.10522 16.0651 6.25534 15.8657 6.31543 15.6328C6.61449 14.4717 7.79488 13.5938 9.0625 13.5938C10.3301 13.5938 11.5116 14.4694 11.8096 15.6328C11.8697 15.8657 12.0198 16.0651 12.2269 16.1872C12.434 16.3094 12.6812 16.3443 12.9141 16.2842C13.1469 16.2241 13.3463 16.074 13.4685 15.8668C13.5906 15.6597 13.6255 15.4125 13.5654 15.1797ZM7.25 9.96875C7.25 9.61027 7.3563 9.25984 7.55546 8.96178C7.75462 8.66372 8.0377 8.4314 8.36889 8.29422C8.70008 8.15703 9.06451 8.12114 9.4161 8.19108C9.76769 8.26101 10.0906 8.43364 10.3441 8.68712C10.5976 8.9406 10.7702 9.26356 10.8402 9.61515C10.9101 9.96674 10.8742 10.3312 10.737 10.6624C10.5998 10.9936 10.3675 11.2766 10.0695 11.4758C9.77141 11.6749 9.42098 11.7812 9.0625 11.7812C8.58179 11.7812 8.12078 11.5903 7.78087 11.2504C7.44096 10.9105 7.25 10.4495 7.25 9.96875Z" fill="#363743"/>
</svg>
