<svg width="16" height="20" viewBox="0 0 16 20" fill="none" xmlns="http://www.w3.org/2000/svg">
<path d="M0.751239 18C0.751239 18.414 1.08724 18.75 1.50124 18.75H12.1532C13.3162 18.75 13.7512 18.385 13.7512 17.15V15.705M0.751239 18C0.751239 17.4033 0.988292 16.831 1.41025 16.409C1.83221 15.9871 2.4045 15.75 3.00124 15.75H13.1532C13.3792 15.75 13.5786 15.735 13.7512 15.705M0.751239 18V3.95C0.751239 2.814 0.679239 1.561 1.84324 0.968C2.27124 0.75 2.83124 0.75 3.95124 0.75H13.1512C14.3872 0.75 14.7512 1.187 14.7512 2.35V14.15C14.7512 15.145 14.4692 15.575 13.7512 15.705M5.75124 5.75L9.75124 9.75M9.75124 5.75L5.75124 9.75" stroke="#363743" stroke-width="1.5" stroke-linecap="round" stroke-linejoin="round"/>
</svg>
