<svg width="22" height="19" viewBox="0 0 22 19" fill="none" xmlns="http://www.w3.org/2000/svg">
<path d="M4.23077 4.52381C4.23077 4.16736 4.29643 3.81441 4.424 3.4851C4.55157 3.15579 4.73855 2.85656 4.97427 2.60452C5.20999 2.35247 5.48982 2.15254 5.7978 2.01614C6.10578 1.87973 6.43588 1.80952 6.76923 1.80952C7.10259 1.80952 7.43268 1.87973 7.74066 2.01614C8.04864 2.15254 8.32848 2.35247 8.56419 2.60452C8.79991 2.85656 8.98689 3.15579 9.11446 3.4851C9.24203 3.81441 9.30769 4.16736 9.30769 4.52381C9.30769 5.24368 9.04025 5.93407 8.56419 6.4431C8.08814 6.95213 7.44247 7.2381 6.76923 7.2381C6.09599 7.2381 5.45032 6.95213 4.97427 6.4431C4.49821 5.93407 4.23077 5.24368 4.23077 4.52381ZM6.76923 0C5.64716 0 4.57105 0.476614 3.77763 1.32499C2.9842 2.17337 2.53846 3.32402 2.53846 4.52381C2.53846 5.7236 2.9842 6.87425 3.77763 7.72263C4.57105 8.571 5.64716 9.04762 6.76923 9.04762C7.8913 9.04762 8.96741 8.571 9.76084 7.72263C10.5543 6.87425 11 5.7236 11 4.52381C11 3.32402 10.5543 2.17337 9.76084 1.32499C8.96741 0.476614 7.8913 0 6.76923 0ZM15.2308 5.42857C15.2308 4.94866 15.4091 4.4884 15.7264 4.14905C16.0438 3.80969 16.4742 3.61905 16.9231 3.61905C17.3719 3.61905 17.8023 3.80969 18.1197 4.14905C18.4371 4.4884 18.6154 4.94866 18.6154 5.42857C18.6154 5.90849 18.4371 6.36875 18.1197 6.7081C17.8023 7.04745 17.3719 7.2381 16.9231 7.2381C16.4742 7.2381 16.0438 7.04745 15.7264 6.7081C15.4091 6.36875 15.2308 5.90849 15.2308 5.42857ZM16.9231 1.80952C16.0254 1.80952 15.1645 2.19081 14.5298 2.86952C13.8951 3.54822 13.5385 4.46874 13.5385 5.42857C13.5385 6.3884 13.8951 7.30892 14.5298 7.98762C15.1645 8.66633 16.0254 9.04762 16.9231 9.04762C17.8207 9.04762 18.6816 8.66633 19.3164 7.98762C19.9511 7.30892 20.3077 6.3884 20.3077 5.42857C20.3077 4.46874 19.9511 3.54822 19.3164 2.86952C18.6816 2.19081 17.8207 1.80952 16.9231 1.80952ZM0 13.5714C0 12.8516 0.267444 12.1612 0.743498 11.6521C1.21955 11.1431 1.86522 10.8571 2.53846 10.8571H11C11.6732 10.8571 12.3189 11.1431 12.795 11.6521C13.271 12.1612 13.5385 12.8516 13.5385 13.5714V13.7741C13.5381 13.857 13.5325 13.9399 13.5215 14.022C13.4253 14.8993 13.12 15.7355 12.6348 16.4504C11.7091 17.8166 9.94908 19 6.76923 19C3.58938 19 1.83108 17.8166 0.902 16.4504C0.417396 15.7353 0.112638 14.8991 0.0169231 14.022C0.00862896 13.9396 0.00298463 13.8569 0 13.7741V13.5714ZM1.69231 13.7343V13.747L1.69908 13.8356C1.7644 14.3958 1.96117 14.9293 2.27108 15.3864C2.82277 16.197 4.02431 17.1905 6.76923 17.1905C9.51415 17.1905 10.7157 16.197 11.2674 15.3864C11.5773 14.9293 11.7741 14.3958 11.8394 13.8356L11.8462 13.7451V13.5714C11.8462 13.3315 11.757 13.1013 11.5983 12.9317C11.4396 12.762 11.2244 12.6667 11 12.6667H2.53846C2.31405 12.6667 2.09883 12.762 1.94014 12.9317C1.78146 13.1013 1.69231 13.3315 1.69231 13.5714V13.7343ZM16.9231 17.1905C15.928 17.1905 15.1123 17.0276 14.4523 16.7598C14.7211 16.2272 14.9263 15.6606 15.0632 15.0733C15.5168 15.2561 16.1192 15.381 16.9231 15.381C18.8168 15.381 19.5935 14.6897 19.9354 14.1758C20.1367 13.877 20.2637 13.5282 20.3043 13.1625L20.3077 13.1118C20.3059 12.9931 20.2606 12.8799 20.1814 12.7966C20.1023 12.7133 19.9957 12.6667 19.8846 12.6667H15.1462C15.0207 12.0107 14.7606 11.3926 14.3846 10.8571H19.8846C21.0523 10.8571 22 11.8705 22 13.119V13.1498C21.9989 13.2158 21.9943 13.2816 21.9865 13.347C21.9166 14.0257 21.6847 14.6738 21.3129 15.229C20.5988 16.2984 19.2602 17.1905 16.9231 17.1905Z" fill="#363743"/>
</svg>
